# xmcd
#
# Track frame offsets: 
#        150
#        24057
#        42625
#        69327
#        90720
#        108507
#        115175
#        138622
#        163295
#        170897
#        189257
#        210462
#        240260
#
# Disc length: 3507 seconds
#
# Revision: 16
# Processed by: cddbd v1.5.2PL0 Copyright (c) Steve Scherf et al.
# Submitted via: ExactAudioCopy v1.3
#
DISCID=af0db10d
DTITLE=Van Halen - Balance
DYEAR=1995
DGENRE=Heavy Metal
TTITLE0=The Seventh Seal
TTITLE1=Can't Stop Lovin' You
TTITLE2=Don't Tell Me (What Love Can Do)
TTITLE3=Amsterdam
TTITLE4=Big Fat Money
TTITLE5=Strung Out
TTITLE6=Not Enough
TTITLE7=Aftershock
TTITLE8=Doin' Time
TTITLE9=Baluchitherium
TTITLE10=Take Me Back (Deja Vu)
TTITLE11=Feelin'
TTITLE12=Crossing Over
EXTD=
EXTT0=
EXTT1=
EXTT2=
EXTT3=
EXTT4=
EXTT5=
EXTT6=
EXTT7=
EXTT8=
EXTT9=
EXTT10=
EXTT11=
EXTT12=
PLAYORDER=
